<svg width="16" height="14" viewBox="0 0 16 14" fill="none" xmlns="http://www.w3.org/2000/svg">
<path d="M14.786 6.89066L8.7485 0.856289L8.34381 0.451602C8.25161 0.360003 8.12691 0.308594 7.99694 0.308594C7.86697 0.308594 7.74227 0.360003 7.65006 0.451602L1.20788 6.89066C1.11339 6.98478 1.03872 7.09687 0.988271 7.22031C0.937819 7.34376 0.912608 7.47606 0.914127 7.60941C0.920377 8.15941 1.37819 8.59848 1.92819 8.59848H2.59225V13.6875H13.4016V8.59848H14.0798C14.3469 8.59848 14.5985 8.49379 14.7876 8.30473C14.8807 8.21193 14.9544 8.10159 15.0046 7.98009C15.0547 7.8586 15.0803 7.72836 15.0798 7.59691C15.0798 7.33129 14.9751 7.07973 14.786 6.89066V6.89066ZM8.87194 12.5625H7.12194V9.37504H8.87194V12.5625ZM12.2766 7.47348V12.5625H9.87194V9.00004C9.87194 8.65473 9.59225 8.37504 9.24694 8.37504H6.74694C6.40163 8.37504 6.12194 8.65473 6.12194 9.00004V12.5625H3.71725V7.47348H2.21725L7.9985 1.69691L8.35944 2.05785L13.7782 7.47348H12.2766Z" fill="black" fill-opacity="0.88"/>
</svg>
