<svg width="14" height="14" viewBox="0 0 14 14" fill="none" xmlns="http://www.w3.org/2000/svg">
<path d="M11.8782 9.9363C11.4871 9.54489 11.0301 9.22543 10.5282 8.99255C11.236 8.41912 11.6875 7.54412 11.6875 6.56287C11.6875 4.83162 10.2438 3.4113 8.51254 3.43787C6.80785 3.46443 5.43441 4.85349 5.43441 6.56287C5.43441 7.54412 5.88754 8.41912 6.59379 8.99255C6.09177 9.22526 5.63476 9.54474 5.24379 9.9363C4.39066 10.791 3.90629 11.9191 3.87504 13.1222C3.87462 13.1389 3.87755 13.1555 3.88364 13.171C3.88974 13.1866 3.89888 13.2007 3.91053 13.2127C3.92218 13.2246 3.9361 13.2341 3.95147 13.2406C3.96684 13.247 3.98336 13.2504 4.00004 13.2504H4.87504C4.94223 13.2504 4.99848 13.1972 5.00004 13.1301C5.02973 12.2238 5.39691 11.3754 6.04223 10.7316C6.37245 10.3996 6.76523 10.1365 7.19784 9.9573C7.63045 9.77814 8.0943 9.68656 8.56254 9.68787C9.5141 9.68787 10.4094 10.0582 11.0829 10.7316C11.7266 11.3754 12.0938 12.2238 12.125 13.1301C12.1266 13.1972 12.1829 13.2504 12.25 13.2504H13.125C13.1417 13.2504 13.1582 13.247 13.1736 13.2406C13.189 13.2341 13.2029 13.2246 13.2146 13.2127C13.2262 13.2007 13.2353 13.1866 13.2414 13.171C13.2475 13.1555 13.2505 13.1389 13.25 13.1222C13.2188 11.9191 12.7344 10.791 11.8782 9.9363ZM8.56254 8.56287C8.02816 8.56287 7.52504 8.35505 7.14848 7.97693C6.9595 7.78944 6.81022 7.5658 6.70955 7.31937C6.60888 7.07293 6.55888 6.80874 6.56254 6.54255C6.56723 6.03005 6.77191 5.53474 7.12973 5.16755C7.50473 4.78318 8.00629 4.56912 8.54223 4.56287C9.07192 4.55818 9.58598 4.76443 9.9641 5.13474C10.3516 5.51443 10.5641 6.02224 10.5641 6.56287C10.5641 7.09724 10.3563 7.5988 9.97816 7.97693C9.79265 8.16333 9.57202 8.31109 9.32903 8.41167C9.08604 8.51224 8.82552 8.56363 8.56254 8.56287ZM4.64848 6.97537C4.63441 6.83943 4.6266 6.70193 4.6266 6.56287C4.6266 6.31443 4.65004 6.07224 4.69379 5.8363C4.70473 5.78005 4.67504 5.72224 4.62348 5.6988C4.41098 5.60349 4.21566 5.47224 4.04691 5.30662C3.84807 5.11382 3.6916 4.88168 3.58748 4.62503C3.48337 4.36837 3.4339 4.09283 3.44223 3.81599C3.45629 3.31443 3.65785 2.83787 4.00941 2.47849C4.39535 2.08318 4.9141 1.86755 5.46566 1.8738C5.9641 1.87849 6.44535 2.07068 6.80941 2.4113C6.93285 2.52693 7.0391 2.65505 7.12817 2.79255C7.15942 2.84099 7.22035 2.8613 7.27348 2.84255C7.54848 2.74724 7.8391 2.68005 8.13754 2.6488C8.22504 2.63943 8.27504 2.54568 8.23598 2.46755C7.72816 1.46287 6.69066 0.769117 5.49066 0.750367C3.75785 0.723804 2.3141 2.14412 2.3141 3.8738C2.3141 4.85505 2.76566 5.73005 3.47348 6.30349C2.9766 6.53318 2.51879 6.85037 2.12191 7.24724C1.26566 8.10193 0.781289 9.23005 0.750039 10.4347C0.749622 10.4514 0.752547 10.468 0.758642 10.4835C0.764737 10.4991 0.773878 10.5132 0.785527 10.5252C0.797176 10.5371 0.811098 10.5466 0.826471 10.5531C0.841844 10.5595 0.858358 10.5629 0.875039 10.5629H1.7516C1.81879 10.5629 1.87504 10.5097 1.8766 10.4426C1.90629 9.5363 2.27348 8.68787 2.91879 8.04412C3.37816 7.58474 3.94066 7.26599 4.55473 7.1113C4.61566 7.09568 4.65629 7.03787 4.64848 6.97537V6.97537Z" fill="black" fill-opacity="0.88"/>
</svg>
